HIERARCHY
ROOT Hips
{
	OFFSET -32.860001 56.121803 44.745396
	CHANNELS 6 Xposition Yposition Zposition Zrotation Xrotation Yrotation
	JOINT Chest
	{
		OFFSET -0.637402 0.831600 5.390099
		CHANNELS 6 Xposition Yposition Zposition Zrotation Xrotation Yrotation
		JOINT Chest2
		{
			OFFSET 0.000000 0.000000 4.429901
			CHANNELS 6 Xposition Yposition Zposition Zrotation Xrotation Yrotation
			JOINT Neck
			{
				OFFSET 0.000000 0.000000 10.301395
				CHANNELS 6 Xposition Yposition Zposition Zrotation Xrotation Yrotation
				JOINT Head
				{
					OFFSET 0.000000 0.000000 2.173897
					CHANNELS 6 Xposition Yposition Zposition Zrotation Xrotation Yrotation
					End Site
					{
						OFFSET 0.000000 0.000000 8.298004
					}
				}
			}
			JOINT LeftCollar
			{
				OFFSET 2.142401 -0.572701 5.717800
				CHANNELS 6 Xposition Yposition Zposition Zrotation Xrotation Yrotation
				JOINT LeftShoulder
				{
					OFFSET 5.674000 0.000000 0.000000
					CHANNELS 6 Xposition Yposition Zposition Zrotation Xrotation Yrotation
					JOINT LeftElbow
					{
						OFFSET 0.000000 0.000000 -12.238701
						CHANNELS 6 Xposition Yposition Zposition Zrotation Xrotation Yrotation
						JOINT LeftWrist
						{
							OFFSET 0.000000 0.000000 -10.253700
							CHANNELS 6 Xposition Yposition Zposition Zrotation Xrotation Yrotation
							End Site
							{
								OFFSET 0.000000 0.000000 -2.173901
							}
						}
					}
				}
			}
			JOINT RightCollar
			{
				OFFSET -2.882599 -1.580101 6.695801
				CHANNELS 6 Xposition Yposition Zposition Zrotation Xrotation Yrotation
				JOINT RightShoulder
				{
					OFFSET -4.235600 0.000000 0.000000
					CHANNELS 6 Xposition Yposition Zposition Zrotation Xrotation Yrotation
					JOINT RightElbow
					{
						OFFSET 0.000000 0.000000 -10.709900
						CHANNELS 6 Xposition Yposition Zposition Zrotation Xrotation Yrotation
						JOINT RightWrist
						{
							OFFSET 0.000000 0.000000 -11.716801
							CHANNELS 6 Xposition Yposition Zposition Zrotation Xrotation Yrotation
							End Site
							{
								OFFSET 0.000000 0.000000 -2.173901
							}
						}
					}
				}
			}
		}
	}
	JOINT LeftHip
	{
		OFFSET 2.279499 0.210400 -2.475502
		CHANNELS 6 Xposition Yposition Zposition Zrotation Xrotation Yrotation
		JOINT LeftKnee
		{
			OFFSET 0.000000 -0.000004 -20.742800
			CHANNELS 6 Xposition Yposition Zposition Zrotation Xrotation Yrotation
			JOINT LeftAnkle
			{
				OFFSET 0.000000 0.000000 -16.666000
				CHANNELS 6 Xposition Yposition Zposition Zrotation Xrotation Yrotation
				End Site
				{
					OFFSET 0.000000 -8.310898 0.000000
				}
			}
		}
	}
	JOINT RightHip
	{
		OFFSET -1.961899 0.232300 -2.727402
		CHANNELS 6 Xposition Yposition Zposition Zrotation Xrotation Yrotation
		JOINT RightKnee
		{
			OFFSET 0.000000 -0.000004 -20.526800
			CHANNELS 6 Xposition Yposition Zposition Zrotation Xrotation Yrotation
			JOINT RightAnkle
			{
				OFFSET 0.000000 0.000000 -16.867300
				CHANNELS 6 Xposition Yposition Zposition Zrotation Xrotation Yrotation
				End Site
				{
					OFFSET 0.000000 -7.186401 0.000000
				}
			}
		}
	}
}
MOTION
Frames: 4
Frame Time: 0.041667
55.070999 85.966507 44.742290 1608.976407 1.831230 2.142488 -0.637397 0.831610 5.390101 11.241238 10.587977 -0.130469 -0.000004 0.000014 4.429890 -4.730180 -0.631501 -0.069710 0.000005 0.000006 10.301398 374.415698 27.368302 -2.962878 0.000000 -0.000014 2.173889 -358.515127 7.575580 1.540570 2.142395 -0.572702 5.717797 6.647524 -5.196069 -10.376455 5.673994 0.000007 0.000005 341.029433 -714.915682 -66.418296 -0.000001 -0.000005 -12.238697 -894.565503 206.881936 -172.378689 0.000005 0.000006 -10.253699 -267.058047 11.752255 8.473018 -2.882601 -1.580095 6.695798 -3.056789 -7.072951 8.256810 -4.235599 -0.000011 -0.000004 -1066.811181 -4.218727 -650.409845 -0.000001 -0.000010 -10.709914 164.741813 -153.920540 160.278148 -0.000002 0.000006 -11.716792 -990.096682 5.202873 8.171771 2.279504 0.210418 -2.475504 383.809039 -18.647815 5.418505 0.000006 -0.000020 -20.742792 -372.964255 29.099338 -4.051009 -0.000005 0.000008 -16.666002 340.989463 27.928673 13.785685 -1.961890 0.232307 -2.727407 -1070.849407 11.193370 17.878124 0.000000 -0.000002 -20.526806 884.105478 154.366387 -184.531836 -0.000002 -0.000008 -16.867308 32.088283 67.235481 -36.557286
55.070496 85.974792 44.738983 1608.947556 1.883883 2.153439 -0.637406 0.831598 5.390090 11.266149 10.480335 -0.130255 -0.000002 0.000001 4.429900 -4.789025 -0.631474 -0.083006 -0.000005 -0.000007 10.301398 374.409988 27.425462 -2.884446 -0.000002 0.000012 2.173907 -358.428739 7.559530 1.463889 2.142400 -0.572703 5.717797 6.671694 -5.319255 -10.366880 5.674001 0.000007 0.000002 340.988998 -714.890000 -66.370007 0.000005 0.000012 -12.238701 -894.694348 206.818306 -172.405927 0.000005 -0.000004 -10.253699 -267.096296 11.719828 8.379412 -2.882605 -1.580092 6.695794 -2.774390 -6.708094 8.241922 -4.235602 0.000008 -0.000002 -1067.019693 -4.362231 -650.291492 0.000008 -0.000004 -10.709904 165.084033 -153.719295 160.479830 -0.000002 -0.000003 -11.716791 -990.481249 5.103779 8.122387 2.279498 0.210392 -2.475510 383.841605 -18.684689 5.439569 0.000001 -0.000000 -20.742800 -373.209732 29.133899 -3.950354 -0.000001 -0.000006 -16.665997 341.251578 27.896644 13.711171 -1.961892 0.232296 -2.727411 -1071.046772 11.023223 17.915750 0.000000 0.000004 -20.526802 884.418847 154.260601 -184.520976 -0.000006 0.000003 -16.867294 32.009989 67.168996 -36.506501
55.069511 85.982407 44.736786 1608.919033 1.908061 2.160696 -0.637407 0.831599 5.390090 11.292823 10.414458 -0.130104 -0.000010 0.000005 4.429896 -4.854903 -0.637410 -0.098996 -0.000001 0.000001 10.301399 374.393596 27.483858 -2.788099 -0.000005 0.000011 2.173901 -358.314401 7.527673 1.382036 2.142393 -0.572701 5.717799 6.708090 -5.486392 -10.371850 5.673989 0.000008 -0.000000 340.927144 -714.799623 -66.285640 0.000005 -0.000003 -12.238699 -894.776529 206.723858 -172.419492 -0.000005 0.000012 -10.253700 -267.041764 11.598083 8.309819 -2.882596 -1.580094 6.695796 -2.498961 -6.345170 8.238851 -4.235602 0.000006 0.000007 -1067.203397 -4.513477 -650.197836 0.000001 -0.000005 -10.709900 165.329005 -153.547830 160.640981 -0.000003 -0.000002 -11.716803 -990.811720 5.051264 8.043760 2.279497 0.210414 -2.475499 383.872095 -18.695821 5.445345 -0.000002 -0.000014 -20.742800 -373.347839 29.145971 -3.880167 -0.000003 0.000005 -16.665997 341.394192 27.883016 13.655347 -1.961894 0.232300 -2.727408 -1071.010600 10.995880 17.904339 -0.000000 -0.000012 -20.526800 888.114307 154.287416 -185.810925 0.000001 0.000003 -16.867304 28.961471 66.782905 -36.746534
55.068008 85.987312 44.736992 1608.876631 1.906085 2.178236 -0.637402 0.831603 5.390101 11.336068 10.380939 -0.130622 -0.000005 -0.000001 4.429896 -4.760337 -0.614666 -0.084999 -0.000001 -0.000003 10.301404 374.033699 27.516187 -2.641286 0.000003 -0.000002 2.173905 -358.112446 7.479401 1.313740 2.142404 -0.572709 5.717814 6.653367 -5.413924 -10.412586 5.673991 0.000012 0.000003 340.854225 -714.833938 -66.297648 0.000001 -0.000004 -12.238689 -894.751995 206.785644 -172.456293 -0.000004 0.000010 -10.253699 -267.000892 11.521058 8.471181 -2.882597 -1.580104 6.695803 -2.498043 -6.444568 8.167138 -4.235616 0.000014 -0.000001 -1067.305468 -4.357494 -650.201716 0.000003 -0.000001 -10.709905 165.638480 -153.365409 160.776957 -0.000008 -0.000000 -11.716801 -991.086021 5.007441 8.001919 2.279499 0.210409 -2.475496 383.910289 -18.693845 5.434365 -0.000004 -0.000006 -20.742796 -373.503895 29.171478 -3.807451 -0.000004 0.000009 -16.665995 341.549347 27.862534 13.597693 -1.961894 0.232306 -2.727404 -1070.366158 11.278981 17.756207 -0.000004 0.000008 -20.526806 887.468882 154.423351 -185.829244 0.000007 0.000005 -16.867306 28.874205 66.824337 -36.556870
